<?xml version="1.0" standalone="no"?>
<!DOCTYPE svg PUBLIC "-//W3C//DTD SVG 20010904//EN"
 "http://www.w3.org/TR/2001/REC-SVG-20010904/DTD/svg10.dtd">
<svg version="1.0" xmlns="http://www.w3.org/2000/svg"
 width="128.000000pt" height="128.000000pt" viewBox="0 0 128.000000 128.000000"
 preserveAspectRatio="xMidYMid meet">

<g transform="translate(0.000000,128.000000) scale(0.100000,-0.100000)"
fill="#000000" stroke="none">
<path d="M871 1166 c-25 -14 -50 -51 -51 -75 0 -8 -20 -35 -44 -61 -65 -69
-105 -207 -76 -261 6 -10 17 -19 24 -19 10 0 15 -16 18 -49 3 -47 2 -49 -31
-61 -18 -7 -41 -20 -52 -31 -18 -18 -20 -18 -58 -1 -37 17 -38 19 -25 42 7 14
13 42 14 62 0 24 6 41 18 50 42 30 54 87 26 127 -9 13 -18 40 -19 62 -5 66
-25 107 -71 148 -84 74 -190 76 -274 3 -50 -42 -70 -84 -70 -148 0 -31 -6 -54
-17 -66 -27 -30 -22 -87 9 -112 16 -13 28 -36 32 -61 4 -22 14 -50 21 -61 13
-20 11 -22 -26 -33 -22 -7 -56 -26 -76 -44 -59 -52 -71 -92 -79 -268 -4 -86
-4 -168 0 -183 l6 -26 573 3 572 2 -4 180 c-2 118 -8 190 -17 211 -18 43 -60
92 -96 110 -22 12 -27 19 -19 27 6 6 11 33 11 59 0 35 4 48 14 48 30 0 46 30
46 85 0 74 -33 157 -83 208 -23 23 -42 53 -44 67 -6 60 -94 98 -152 66z m99
-46 c11 -11 20 -23 20 -27 0 -5 -31 -8 -70 -8 -75 0 -88 11 -48 39 31 22 74
20 98 -4z m-523 -6 c28 -8 43 -51 43 -121 0 -79 21 -113 71 -113 51 0 68 -57
24 -86 -18 -11 -26 -28 -30 -62 -11 -77 -14 -84 -38 -78 -13 3 -39 -3 -64 -16
-37 -20 -47 -21 -85 -11 -52 14 -60 10 -19 -11 35 -18 93 -21 122 -5 11 6 25
9 32 6 14 -4 -80 -107 -98 -107 -20 0 -117 111 -111 126 3 9 -2 14 -14 14 -20
0 -24 9 -34 83 -3 24 -15 48 -31 62 -14 13 -25 29 -25 35 0 24 22 50 41 50 23
0 61 18 71 34 4 6 8 38 8 72 0 78 15 122 43 127 35 7 70 7 94 1z m107 -82 c20
-40 30 -109 16 -117 -22 -13 -38 19 -43 87 -5 70 2 78 27 30z m-282 -40 c-3
-49 -8 -64 -23 -72 -17 -10 -19 -7 -19 32 0 26 8 57 21 77 11 18 21 32 22 30
2 -2 1 -32 -1 -67z m728 43 c54 -28 89 -84 110 -180 6 -28 7 -53 1 -62 -7 -13
-13 -7 -29 30 -22 49 -73 91 -127 102 -26 6 -23 2 23 -30 29 -20 58 -48 64
-63 5 -15 16 -41 23 -58 10 -23 11 -43 3 -78 -10 -47 -11 -48 -42 -42 -28 5
-35 2 -54 -24 -30 -40 -72 -41 -102 -2 -16 19 -31 27 -53 27 -28 0 -32 4 -44
44 -11 37 -10 51 2 88 22 64 35 81 88 113 57 36 60 45 10 23 -62 -25 -94 -54
-115 -100 -24 -55 -42 -47 -33 16 15 102 77 192 143 207 15 3 32 7 37 9 16 4
68 -7 95 -20z m-723 -425 c2 -29 39 -85 76 -116 l32 -27 0 -163 0 -164 -142 0
-143 0 0 143 c0 208 21 261 130 326 43 26 45 26 47 1z m325 -19 c57 -36 95
-99 98 -161 2 -25 2 -100 1 -167 l-1 -123 -139 0 -140 0 -3 157 -3 158 43 48
c24 26 50 63 58 82 8 19 20 35 27 35 7 0 34 -13 59 -29z m174 1 c1 -10 2 -27
3 -39 2 -33 48 -81 89 -94 l37 -11 0 -151 0 -152 -35 -7 c-19 -4 -56 -7 -82
-7 l-48 -1 0 118 c0 165 -13 237 -49 289 l-30 42 52 19 c55 21 61 20 63 -6z
m254 -9 c0 -15 -13 -38 -34 -59 -41 -41 -97 -47 -140 -13 -26 20 -56 68 -56
89 0 18 28 11 56 -15 39 -36 91 -34 129 5 31 33 45 31 45 -7z m86 -28 c24 -24
48 -61 53 -82 6 -21 11 -104 11 -185 l0 -148 -123 0 -123 0 4 62 c2 35 -1 104
-5 155 l-9 92 28 7 c16 3 42 17 58 30 30 25 56 86 45 104 -3 5 -1 10 6 10 7 0
32 -20 55 -45z"/>
<path d="M303 874 c-7 -3 -13 -12 -13 -20 0 -10 13 -14 46 -14 38 0 45 3 42
18 -3 17 -49 27 -75 16z"/>
<path d="M433 873 c-7 -2 -13 -11 -13 -19 0 -10 12 -14 38 -14 45 0 56 8 41
27 -11 13 -42 16 -66 6z"/>
<path d="M343 715 c2 -5 16 -17 30 -25 24 -13 30 -13 54 0 46 26 38 37 -27 36
-36 0 -59 -5 -57 -11z"/>
<path d="M842 798 c2 -12 10 -23 18 -23 22 0 19 39 -3 43 -15 3 -18 -1 -15
-20z"/>
<path d="M960 801 c0 -24 18 -37 31 -24 13 13 1 43 -17 43 -8 0 -14 -9 -14
-19z"/>
<path d="M903 693 c-39 -5 -42 -19 -8 -35 29 -13 79 4 72 25 -4 14 -18 16 -64
10z"/>
</g>
</svg>
