<?xml version="1.0" standalone="no"?>
<!DOCTYPE svg PUBLIC "-//W3C//DTD SVG 20010904//EN"
 "http://www.w3.org/TR/2001/REC-SVG-20010904/DTD/svg10.dtd">
<svg version="1.0" xmlns="http://www.w3.org/2000/svg"
 width="128.000000pt" height="128.000000pt" viewBox="0 0 128.000000 128.000000"
 preserveAspectRatio="xMidYMid meet">

<g transform="translate(0.000000,128.000000) scale(0.100000,-0.100000)"
fill="#000000" stroke="none">
<path d="M447 1269 c-44 -10 -113 -44 -122 -60 -17 -27 14 -28 69 -3 76 35
152 41 257 20 112 -23 216 -74 277 -136 27 -28 54 -50 61 -50 27 0 7 41 -44
89 -117 111 -347 176 -498 140z"/>
<path d="M226 1248 c-23 -77 -33 -93 -66 -104 -45 -15 -45 -33 0 -48 30 -9 37
-18 52 -61 9 -27 21 -50 28 -50 7 0 19 23 28 50 15 43 22 52 52 61 19 7 35 17
35 24 0 7 -16 17 -35 24 -30 9 -37 18 -51 61 -17 49 -36 68 -43 43z m34 -114
c11 -12 10 -18 -3 -32 -16 -15 -18 -15 -34 0 -13 14 -14 20 -3 32 7 9 16 16
20 16 4 0 13 -7 20 -16z"/>
<path d="M405 1109 c-11 -17 63 -118 138 -188 145 -136 164 -157 181 -206 34
-100 14 -237 -45 -308 -38 -46 -85 -71 -164 -87 -124 -25 -198 -76 -234 -161
-24 -55 -25 -114 -2 -114 10 0 18 20 26 58 8 42 20 67 46 93 44 47 68 58 169
83 46 12 103 33 126 46 89 52 140 171 132 304 -7 125 -37 172 -185 298 -34 29
-85 84 -114 123 -52 71 -62 79 -74 59z"/>
<path d="M1046 1088 c-23 -77 -33 -93 -66 -104 -45 -15 -45 -33 0 -48 30 -9
37 -18 52 -61 9 -27 21 -50 28 -50 7 0 19 23 28 50 15 43 22 52 52 61 19 7 35
17 35 24 0 7 -16 17 -35 24 -30 9 -37 18 -51 61 -17 49 -36 68 -43 43z m34
-114 c11 -12 10 -18 -3 -32 -16 -15 -18 -15 -34 0 -13 14 -14 20 -3 32 7 9 16
16 20 16 4 0 13 -7 20 -16z"/>
<path d="M349 1038 c-46 -49 -60 -115 -38 -189 10 -33 9 -42 -10 -72 -31 -51
-28 -86 9 -100 21 -8 30 -18 30 -34 0 -12 4 -25 10 -28 6 -4 6 -12 -2 -24 -6
-10 -8 -29 -5 -43 11 -42 74 -59 145 -39 27 8 34 7 42 -9 15 -29 12 -62 -11
-104 -23 -44 -13 -70 17 -45 41 34 56 118 29 169 -18 34 -43 44 -79 30 -34
-13 -93 -13 -101 -1 -3 5 0 21 7 36 9 21 9 31 0 46 -7 10 -12 28 -12 40 0 14
-10 24 -30 32 -36 14 -36 19 -9 64 16 25 19 42 15 66 -23 108 -20 129 20 176
38 46 15 72 -27 29z"/>
<path d="M169 953 c-18 -45 -4 -178 26 -258 67 -178 67 -179 62 -232 -4 -36
-19 -77 -48 -129 -51 -93 -62 -171 -34 -253 18 -56 57 -93 77 -73 8 8 4 19
-15 41 -53 64 -48 166 14 279 68 122 66 161 -21 387 -18 46 -24 83 -25 160 -2
103 -15 132 -36 78z"/>
<path d="M1047 794 c-4 -4 -7 -28 -7 -53 0 -42 -21 -194 -36 -263 -5 -23 -3
-28 13 -28 15 0 22 11 31 48 17 76 34 215 30 257 -3 37 -16 53 -31 39z"/>
<path d="M926 468 c-23 -77 -33 -93 -66 -104 -45 -15 -45 -33 0 -48 30 -9 37
-18 52 -61 9 -27 21 -50 28 -50 7 0 19 23 28 50 15 43 22 52 52 61 19 7 35 17
35 24 0 7 -16 17 -35 24 -30 9 -37 18 -51 61 -17 49 -36 68 -43 43z m34 -114
c11 -12 10 -18 -3 -32 -16 -15 -18 -15 -34 0 -13 14 -14 20 -3 32 7 9 16 16
20 16 4 0 13 -7 20 -16z"/>
<path d="M954 145 c-3 -8 5 -34 18 -57 26 -48 95 -91 138 -86 40 5 30 31 -15
40 -46 10 -81 40 -100 86 -15 34 -32 42 -41 17z"/>
</g>
</svg>
